<?xml version="1.0" encoding="UTF-8" standalone="no"?>
<svg
   xmlns:dc="http://purl.org/dc/elements/1.1/"
   xmlns:cc="http://creativecommons.org/ns#"
   xmlns:rdf="http://www.w3.org/1999/02/22-rdf-syntax-ns#"
   xmlns:svg="http://www.w3.org/2000/svg"
   xmlns="http://www.w3.org/2000/svg"
   viewBox="0 0 381.32001 55.573334"
   height="55.573334"
   width="381.32001"
   xml:space="preserve"
   id="svg2"
   version="1.1"><metadata
     id="metadata8"><rdf:RDF><cc:Work
         rdf:about=""><dc:format>image/svg+xml</dc:format><dc:type
           rdf:resource="http://purl.org/dc/dcmitype/StillImage" /></cc:Work></rdf:RDF></metadata><defs
     id="defs6"><clipPath
       id="clipPath20"
       clipPathUnits="userSpaceOnUse"><path
         id="path18"
         d="M 0,416.824 V 0 h 2859.92 v 416.824 z" /></clipPath></defs><g
     transform="matrix(1.3333333,0,0,-1.3333333,0,55.573333)"
     id="g10"><g
       transform="scale(0.1)"
       id="g12"><g
         id="g14"><g
           clip-path="url(#clipPath20)"
           id="g16"><path
             id="path22"
             style="fill:#e51636;fill-opacity:1;fill-rule:evenodd;stroke:none"
             d="M 227.441,12.5898 C 187.184,12.5898 93.4219,101.953 93.4219,101.953 -16.5664,210.625 -7.64453,289.414 12.2305,330.02 c 41.25,84.277 154.2855,85.976 216.3045,20.332 62.016,65.644 172.695,63.945 213.938,-20.332 19.89,-40.606 28.781,-119.395 -81.18,-228.067 0,0 -93.578,-89.3632 -133.852,-89.3632" /><path
             id="path24"
             style="fill:#211d1d;fill-opacity:1;fill-rule:nonzero;stroke:none"
             d="m 716.715,132.773 c 0,-31.621 21.43,-55.898 58.328,-55.898 36.871,0 58.312,24.277 58.312,55.898 0,30.672 -21.441,56.407 -58.312,56.407 -36.898,0 -58.328,-25.735 -58.328,-56.407 M 830.352,35.9961 H 829.34 C 813.395,11.2109 781.992,0 752.094,0 676.352,0 623.023,61.7656 623.023,133.242 c 0,71.524 52.321,132.813 128.098,132.813 29.383,0 60.301,-10.703 79.231,-32.586 v 178.469 h 90.703 V 8.28125 H 830.352 V 35.9961" /><path
             id="path26"
             style="fill:#211d1d;fill-opacity:1;fill-rule:nonzero;stroke:none"
             d="m 1134.42,169.258 c -4.49,23.847 -26.91,39.394 -51.34,39.394 -26.41,0 -48.34,-13.601 -53.83,-39.394 z m 84.21,-51.094 h -190.86 c 0,-35.9765 19.43,-55.4101 56.81,-55.4101 19.44,0 33.39,6.3281 43.34,22.8438 h 87.22 C 1200.69,26.7656 1143.38,0 1085.07,0 1000.35,0 937.074,46.6992 937.074,132.773 c 0,83.172 58.332,133.282 141.526,133.282 88.72,0 140.03,-53.504 140.03,-138.614 v -9.277" /><path
             id="path28"
             style="fill:#211d1d;fill-opacity:1;fill-rule:nonzero;stroke:none"
             d="m 1350.13,8.28125 h -90.7 V 184.844 h -31.92 v 72.949 h 31.92 v 31.602 c 0,34.519 0.99,59.824 25.91,87.519 22.43,25.781 54.83,39.91 89.22,39.91 13.92,0 26.4,-2.461 38.84,-8.769 v -76.356 c -10.45,4.375 -19.91,8.27 -31.9,8.27 -23.4,0 -31.37,-13.621 -31.37,-41.805 v -40.371 h 63.27 v -72.949 h -63.27 V 8.28125" /><path
             id="path30"
             style="fill:#211d1d;fill-opacity:1;fill-rule:nonzero;stroke:none"
             d="m 1529.25,8.28125 h -90.69 V 257.793 h 90.69 z m 5.5,345.31275 c 0,-27.246 -22.89,-49.629 -50.84,-49.629 -27.89,0 -50.85,22.383 -50.85,49.629 0,27.226 22.96,49.574 50.85,49.574 27.95,0 50.84,-22.348 50.84,-49.574" /><path
             id="path32"
             style="fill:#211d1d;fill-opacity:1;fill-rule:nonzero;stroke:none"
             d="m 1649.76,132.773 c 0,-31.621 21.45,-55.898 58.3,-55.898 36.9,0 58.32,24.277 58.32,55.898 0,30.672 -21.42,56.407 -58.32,56.407 -36.85,0 -58.3,-25.735 -58.3,-56.407 m -87.71,279.165 h 90.7 V 233.469 c 19.42,21.883 49.86,32.586 79.24,32.586 75.76,0 128.08,-61.289 128.08,-132.813 C 1860.07,61.3086 1807.27,0 1731.03,0 c -29.94,0 -60.82,11.2109 -77.29,35.9961 h -0.99 V 8.28125 h -90.7 V 411.938" /><path
             id="path34"
             style="fill:#8f8b8d;fill-opacity:1;fill-rule:nonzero;stroke:none"
             d="M 2020.97,6.03516 H 1930.3 V 182.559 h -53.47 v 72.949 h 53.47 v 74.941 h 90.67 v -74.941 h 52.01 v -72.949 h -52.01 V 6.03516" /><path
             id="path36"
             style="fill:#8f8b8d;fill-opacity:1;fill-rule:nonzero;stroke:none"
             d="m 2270.67,169.258 c -4.49,23.847 -26.93,39.394 -51.33,39.394 -26.44,0 -48.39,-13.601 -53.87,-39.394 z m 84.22,-51.094 h -190.88 c 0,-35.9765 19.43,-55.4101 56.8,-55.4101 19.45,0 33.39,6.3281 43.35,22.8438 h 87.2 C 2336.94,26.7656 2279.61,0 2221.31,0 c -84.7,0 -148,46.6992 -148,132.773 0,83.172 58.32,133.282 141.5,133.282 88.75,0 140.08,-53.504 140.08,-138.614 v -9.277" /><path
             id="path38"
             style="fill:#8f8b8d;fill-opacity:1;fill-rule:nonzero;stroke:none"
             d="m 2567.97,176.543 c -13.41,9.746 -29.39,17.52 -46.83,17.52 -34.87,0 -62.31,-26.27 -62.31,-60.821 0,-35.9568 26.45,-61.2693 63.8,-61.2693 15.95,0 33.41,6.3476 45.34,17.0312 V 14.1211 C 2548.07,4.39453 2526.14,0 2504.19,0 c -75.75,0 -139.05,54.9609 -139.05,130.352 0,80.273 62.82,135.703 143.07,135.703 20.92,0 41.84,-4.883 59.76,-14.621 v -74.891" /><path
             id="path40"
             style="fill:#8f8b8d;fill-opacity:1;fill-rule:nonzero;stroke:none"
             d="M 2681.01,411.938 V 226.133 h 1.03 c 20.94,27.265 46.31,39.922 81.7,39.922 64.86,0 96.17,-41.817 96.17,-105.059 V 8.28125 h -90.67 V 136.191 c 0,29.161 -4.49,59.317 -40.89,59.317 -35.84,0 -47.34,-30.156 -47.34,-59.317 V 8.28125 h -90.67 V 411.938 h 90.67" /><path
             id="path42"
             style="fill:#fddd04;fill-opacity:1;fill-rule:nonzero;stroke:none"
             d="M 11.4922,217.961 265.391,284.395 187.805,148.879 443.434,218.367 11.4922,217.961" /></g></g></g></g></svg>